<svg style="display:none" xmlns="http://www.w3.org/2000/svg">
  <symbol viewBox="0 0 26.39 26.39" id="icon-home">
    <svg version="1.1"  xmlns:xlink="http://www.w3.org/1999/xlink" x="0px" y="0px" viewBox="0 0 26.39 26.39" style="enable-background:new 0 0 26.39 26.39;" xml:space="preserve">
      <g>
        <g id="c14_house">
        <path d="M3.588,24.297c0,0-0.024,0.59,0.553,0.59c0.718,0,6.652-0.008,6.652-0.008l0.01-5.451c0,0-0.094-0.898,0.777-0.898h2.761
        c1.031,0,0.968,0.898,0.968,0.898l-0.012,5.434c0,0,5.628,0,6.512,0c0.732,0,0.699-0.734,0.699-0.734V14.076L13.33,5.913
        l-9.742,8.164C3.588,14.077,3.588,24.297,3.588,24.297z"/>
        <path d="M0,13.317c0,0,0.826,1.524,2.631,0l10.781-9.121l10.107,9.064c2.088,1.506,2.871,0,2.871,0L13.412,1.504L0,13.317z"/>
        <polygon points="23.273,4.175 20.674,4.175 20.685,7.328 23.273,9.525 		"/>
        </g>
      </g>
    </svg>
  </symbol>
  <symbol viewBox="0 0 512 512" id="icon-web">
    <svg version="1.1" xmlns="http://www.w3.org/2000/svg" xmlns:xlink="http://www.w3.org/1999/xlink" x="0px" y="0px" viewBox="0 0 512 512" style="enable-background:new 0 0 512 512;" xml:space="preserve">
      <g>
        <g>
          <path d="M402.039,44.069L365.534,7.564c-10.078-10.078-26.428-10.078-36.506,0L128.222,208.362
          c-2.842,2.833-4.975,6.281-6.238,10.086l-18.253,54.767c-3.098,9.276-0.674,19.507,6.238,26.419
          c6.912,6.912,17.143,9.327,26.419,6.238l54.758-18.253c3.806-1.263,7.262-3.405,10.095-6.238L402.039,80.575
          C412.117,70.497,412.117,54.147,402.039,44.069z M128.222,281.373l18.253-54.767l36.506,36.514L128.222,281.373z M201.242,244.867
          l-36.514-36.506L347.273,25.808l36.506,36.506L201.242,244.867z"/>
        </g>
      </g>
    <g>
      <g>
        <circle cx="448" cy="140.795" r="12.8"/>
      </g>
    </g>
    <g>
      <g>
        <circle cx="396.8" cy="140.795" r="12.8"/>
      </g>
    </g>
      <g>
        <g>
          <path d="M486.4,76.795h-53.675c-2.415,7.902-6.519,15.215-12.527,21.214l-4.386,4.386H486.4v76.8H339.004l-25.6,25.6H486.4v281.6
          H25.6v-281.6h76.262c2.543-5.99,5.99-11.639,10.615-16.273l9.318-9.327H25.6v-76.8h172.996l25.6-25.6H25.6
          c-14.14,0-25.6,11.46-25.6,25.6v384c0,14.14,11.46,25.6,25.6,25.6h460.8c14.14,0,25.6-11.46,25.6-25.6v-384
          C512,88.255,500.54,76.795,486.4,76.795z"/>
        </g>
      </g>
    </svg>
  </symbol>
  <symbol viewBox="0 0 321.145 321.145" id="icon-cg">
    <svg version="1.1" xmlns="http://www.w3.org/2000/svg" xmlns:xlink="http://www.w3.org/1999/xlink" x="0px" y="0px" viewBox="0 0 321.145 321.145" style="enable-background:new 0 0 321.145 321.145;" xml:space="preserve"><g><g><path d="M320.973,200.981c-0.8-18.4-4-38.8-8.8-58c-4.8-18.4-10.8-35.6-18-48.8c-28-49.2-58.4-41.6-94.8-32 c-11.6,2.8-24,6-36.8,7.2h-4c-12.8-1.2-25.2-4.4-36.8-7.2c-36.4-9.2-66.8-17.2-94.8,32.4c-7.2,13.2-13.6,30.4-18,48.8 c-4.8,19.2-8,39.6-8.8,58c-0.8,20.4,1.2,35.2,5.6,45.6c4.4,9.6,10.8,15.6,19.2,18c7.6,2,16.4,1.2,25.6-2.8 c15.6-6.4,33.6-20,51.2-36.4c12.4-12,35.6-18,58.8-18s46.4,6,58.8,18c17.6,16.4,35.6,30,51.2,36.4c9.2,3.6,18,4.8,25.6,2.8c8-2.4,14.8-8,19.2-18.4C319.773,236.581,321.773,221.781,320.973,200.981z M301.773,240.981c-2.4,5.6-5.6,8.8-9.6,10c-4.4,1.2-10,0.4-16.4-2c-14-5.6-30.4-18-46.4-33.2c-15.2-15.2-42-22.8-68.8-22.8s-53.6,7.6-69.2,22c-16.4,15.2-32.8,28-46.4,33.2c-6.4,2.4-12,3.6-16.4,2c-4-1.2-7.2-4.4-9.6-10c-3.2-7.6-4.8-20-4-38.4c0.8-17.2,3.6-36.8,8.4-55.2c4.4-17.2,10-33.2,16.8-45.2c22-39.6,47.6-33.2,78-25.2c12.4,3.2,25.2,6.4,39.2,7.6c0.4,0,0.4,0,0.8,0h4.4c0.4,0,0.4,0,0.8,0c14.4-1.2,27.2-4.4,39.6-7.6c30.4-7.6,56-14.4,78,25.2c6.8,12,12.4,27.6,16.8,45.2c4.4,18.4,7.6,37.6,8.4,55.206.973,220.181,305.373,232.581,301.773,240.981z"/></g></g>
    <g><g><path d="M123.773,122.981c-4-3.6-8.8-6.4-14.4-6.8c-0.4-5.2-2.8-10.4-6.4-14l-0.4-0.4c-4.4-4.4-10-6.8-16.4-6.8c-6.4,0-12.4,2.8-16.4,6.8c-3.6,3.6-6.4,8.8-6.8,14.4c-5.6,0.4-10.4,2.8-14.4,6.4l-0.4,0.4c-4.4,4.4-6.8,10-6.8,16.4c0,6.4,2.8,12.4,6.8,16.4c4,4,8.8,6.4,14.8,6.8c0.4,5.6,2.8,10.8,6.8,14.4c4.4,4.4,10,6.8,16.4,6.8c6.4,0,12.4-2.8,16.4-6.8c3.6-4,6.4-8.8,6.8-14.4c5.6-0.4,10.8-2.8,14.4-6.8c4.4-4.4,6.8-10,6.8-16.4C130.573,132.981,127.773,126.981,123.773,122.981zM113.773,145.381c-1.6,1.6-3.6,2.4-6,2.4h-5.6c-4,0-7.6,3.2-7.6,7.6v5.2c0,2.4-0.8,4.4-2.4,6c-1.6,1.6-3.6,2.4-6,2.4c-2.4,0-4.4-0.8-6-2.4c-1.6-1.6-2.4-3.6-2.4-6v-5.6c0-4-3.2-7.6-7.6-7.6h-5.6c-2.4,0-4.4-0.8-6-2.4c-1.2-1.2-2.4-3.2-2.4-5.6c0-2.4,0.8-4.4,2.4-6c0,0,0,0,0.4-0.4c1.6-1.2,3.6-2,5.6-2h5.6c4,0,7.6-3.2,7.6-7.6v-5.6c0-2.4,0.8-4.4,2.4-6c1.6-1.6,3.6-2.4,6-2.4c2.4,0,4.4,0.8,6,2.4c0,0,0,0,0.4,0.4c1.2,1.6,2,3.6,2,5.6v5.6c0,4,3.2,7.6,7.6,7.6h5.6c2.4,0,4.4,0.8,6,2.4c1.6,1.6,2.4,3.6,2.4,6C116.173,141.781,115.373,143.781,113.773,145.381z"/></g></g><g><g><circle cx="230.173" cy="110.981" r="14"/></g></g><g><g><circle cx="230.173" cy="167.781" r="14"/></g></g><g><g><circle cx="201.773" cy="139.381" r="14"/></g></g>
    <g><g><circle cx="258.573" cy="139.381" r="14"/></g></g>
    </svg>
  </symbol>
  <symbol viewBox="0 0 512 512" id="icon-about">
    <svg version="1.1" xmlns="http://www.w3.org/2000/svg" xmlns:xlink="http://www.w3.org/1999/xlink" x="0px" y="0px" viewBox="0 0 512 512" style="enable-background:new 0 0 512 512;" xml:space="preserve">
    <g>
    <g>
    <g>
    <path d="M256,85.333c-23.531,0-42.667,19.135-42.667,42.667s19.135,42.667,42.667,42.667s42.667-19.135,42.667-42.667
    S279.531,85.333,256,85.333z M256,149.333c-11.76,0-21.333-9.573-21.333-21.333s9.573-21.333,21.333-21.333
    s21.333,9.573,21.333,21.333S267.76,149.333,256,149.333z"/>
    <path d="M288,192h-85.333c-5.896,0-10.667,4.771-10.667,10.667v42.667c0,5.896,4.771,10.667,10.667,10.667h10.667v160
    c0,5.896,4.771,10.667,10.667,10.667h64c5.896,0,10.667-4.771,10.667-10.667V202.667C298.667,196.771,293.896,192,288,192z
    M277.333,405.333h-42.667v-160c0-5.896-4.771-10.667-10.667-10.667h-10.667v-21.333h64V405.333z"/>
    <path d="M256,0C114.844,0,0,114.844,0,256s114.844,256,256,256s256-114.844,256-256S397.156,0,256,0z M256,490.667
    C126.604,490.667,21.333,385.396,21.333,256S126.604,21.333,256,21.333S490.667,126.604,490.667,256S385.396,490.667,256,490.667
    z"/>
    </g>
    </g>
    </g>
    </svg>
  </symbol>
  <symbol viewBox="0 0 364.464 364.464" id="icon-contacts">
    <svg version="1.1" id="Capa_1" xmlns="http://www.w3.org/2000/svg" xmlns:xlink="http://www.w3.org/1999/xlink" x="0px" y="0px" viewBox="0 0 364.464 364.464" style="enable-background:new 0 0 364.464 364.464;" xml:space="preserve">
    <g>
    <g>
    <path d="M350.326,136.654c-1.936-2.163-5.154-2.603-7.6-1.04l-15.52,10v-126c-0.462-7.187-6.662-12.639-13.849-12.177
    c-0.077,0.005-0.154,0.011-0.231,0.017H43.286c-7.178-0.589-13.474,4.752-14.063,11.929c-0.006,0.077-0.012,0.154-0.017,0.231
    v120.96l-7.44-4.8c-2.527-1.805-6.019-1.351-8,1.04c-9.083,11.088-13.956,25.028-13.76,39.36v124.96
    c0.32,27.04,15.04,55.92,56.24,55.92h252.16c27.04,0,56-14.72,56-56v-124.88C365.07,161.665,360.015,147.475,350.326,136.654z
    M43.286,19.454h270c1.28,0,2,0.48,2,0v134.16l-132.96,86.24l-141.04-91.44l-0.16-128.24
    C41.721,19.656,42.498,19.397,43.286,19.454z M14.326,314.494c-1.081-4.372-1.645-8.856-1.68-13.36l-0.24-124.96
    c-0.082-9.591,2.523-19.013,7.52-27.2l115.04,74.56L14.326,314.494z M308.406,345.054l-0.08-0.08H56.246
    c-20.96,0-32-8.88-37.68-18.96l127.04-95.76l33.44,21.68c0.795,0.401,1.67,0.619,2.56,0.64c0.89-0.021,1.765-0.239,2.56-0.64
    l32.56-21.12l127.52,96C335.939,338.317,322.595,345.109,308.406,345.054z M352.326,176.094l-0.08,124.96
    c0.021,4.855-0.57,9.693-1.76,14.4l-121.52-91.44l115.84-75.12C350.061,156.967,352.688,166.469,352.326,176.094z"/>
    </g>
    </g>
    <g>
    <g>
    <path d="M207.312,55.108c-27.04-13.888-60.218-3.226-74.106,23.814c-4,7.788-6.084,16.417-6.08,25.172
    c0.176,30.348,24.851,54.845,55.2,54.8c4.48,0.005,8.942-0.56,13.28-1.68c1.605-0.219,3.02-1.163,3.84-2.56
    c0.807-1.322,0.983-2.935,0.48-4.4c-0.144-1.275-0.811-2.434-1.84-3.2c-1.419-0.993-3.203-1.315-4.88-0.88
    c-3.529,0.881-7.165,1.258-10.8,1.12c-24.035,0.044-43.556-19.405-43.6-43.44s19.405-43.556,43.44-43.6
    c24.035-0.044,43.556,19.405,43.6,43.44c0.072,6.944-1.607,13.795-4.88,19.92c-1.474,2.91-3.903,5.226-6.88,6.56h-1.2
    c-1.68,0-1.76-4.4-1.76-4.4v-21.92c0.84-15.972-11.426-29.601-27.398-30.442c-15.972-0.84-29.601,11.426-30.442,27.398
    c-0.053,1.014-0.053,2.029,0,3.043c-0.313,16.39,12.653,29.964,29.04,30.4c6.404,0.035,12.613-2.205,17.52-6.32v0.4
    c0.053,3.045,1.03,6.002,2.8,8.48c2.408,3.206,6.233,5.029,10.24,4.88c1.194,0.173,2.406,0.173,3.6,0
    c6.203-2.039,11.423-6.318,14.64-12v-0.48C245.013,102.174,234.352,68.996,207.312,55.108z M182.326,122.574l0.08,0.08
    c-9.804-0.295-17.513-8.481-17.218-18.286c0.004-0.145,0.01-0.29,0.018-0.434c-0.453-9.929,7.194-18.363,17.12-18.88
    c9.942,0.559,17.635,8.926,17.36,18.88C200.001,113.861,192.25,122.184,182.326,122.574z"/>
    </g>
    </g>
    </svg>
  </symbol>
  <symbol viewBox="0 0 408.788 408.788" id="icon-facebook">
    <svg xmlns="http://www.w3.org/2000/svg" xmlns:xlink="http://www.w3.org/1999/xlink" x="0px" y="0px"
      viewBox="0 0 408.788 408.788" style="enable-background:new 0 0 408.788 408.788;" xml:space="preserve">
      <path d="M353.701,0H55.087C24.665,0,0.002,24.662,0.002,55.085v298.616c0,30.423,24.662,55.085,55.085,55.085
      h147.275l0.251-146.078h-37.951c-4.932,0-8.935-3.988-8.954-8.92l-0.182-47.087c-0.019-4.959,3.996-8.989,8.955-8.989h37.882
      v-45.498c0-52.8,32.247-81.55,79.348-81.55h38.65c4.945,0,8.955,4.009,8.955,8.955v39.704c0,4.944-4.007,8.952-8.95,8.955
      l-23.719,0.011c-25.615,0-30.575,12.172-30.575,30.035v39.389h56.285c5.363,0,9.524,4.683,8.892,10.009l-5.581,47.087
      c-0.534,4.506-4.355,7.901-8.892,7.901h-50.453l-0.251,146.078h87.631c30.422,0,55.084-24.662,55.084-55.084V55.085
      C408.786,24.662,384.124,0,353.701,0z"/>
    </svg>
  </symbol>
  <symbol viewBox="0 0 512 512" id="icon-instagram">
    <svg xmlns="http://www.w3.org/2000/svg" xmlns:xlink="http://www.w3.org/1999/xlink" x="0px" y="0px"
      viewBox="0 0 512 512" style="enable-background:new 0 0 512 512;" xml:space="preserve">
      <g>
        <g>
          <path d="M352,0H160C71.648,0,0,71.648,0,160v192c0,88.352,71.648,160,160,160h192c88.352,0,160-71.648,160-160V160
          C512,71.648,440.352,0,352,0z M464,352c0,61.76-50.24,112-112,112H160c-61.76,0-112-50.24-112-112V160C48,98.24,98.24,48,160,48
          h192c61.76,0,112,50.24,112,112V352z"/>
        </g>
      </g>
        <g>
          <g>
            <path d="M256,128c-70.688,0-128,57.312-128,128s57.312,128,128,128s128-57.312,128-128S326.688,128,256,128z M256,336
            c-44.096,0-80-35.904-80-80c0-44.128,35.904-80,80-80s80,35.872,80,80C336,300.096,300.096,336,256,336z"/>
          </g>
        </g>
      <g>
        <g>
          <circle cx="393.6" cy="118.4" r="17.056"/>
        </g>
      </g>
    </svg>
  </symbol>
  <symbol viewBox="0 0 24 24" id="icon-telegram">
    <svg enable-background="new 0 0 24 24" viewBox="0 0 24 24" xmlns="http://www.w3.org/2000/svg">
      <path d="m12 24c6.629 0 12-5.371 12-12s-5.371-12-12-12-12 5.371-12 12 5.371 12 12 12zm-6.509-12.26 11.57-4.461c.537-.194 1.006.131.832.943l.001-.001-1.97 9.281c-.146.658-.537.818-1.084.508l-3-2.211-1.447 1.394c-.16.16-.295.295-.605.295l.213-3.053 5.56-5.023c.242-.213-.054-.333-.373-.121l-6.871 4.326-2.962-.924c-.643-.204-.657-.643.136-.953z"/>
    </svg>
  </symbol>
</svg>
